<svg xmlns="http://www.w3.org/2000/svg" viewBox="0 0 1536 1024" role="img" aria-label="Abstract music and technology collage">
  <defs>
    <linearGradient id="hot" x1=".85" y1="0" x2=".1" y2="1" objectBoundingBox="true">
      <stop stop-color="#bd5d5b"/>
      <stop offset=".46" stop-color="#d47b69"/>
      <stop offset="1" stop-color="#e6b68f"/>
    </linearGradient>
    <linearGradient id="orb" x1=".14" y1=".08" x2=".82" y2=".95" objectBoundingBox="true">
      <stop stop-color="#c96963"/>
      <stop offset=".62" stop-color="#dd8c78"/>
      <stop offset="1" stop-color="#ebc7a8"/>
    </linearGradient>
    <linearGradient id="sun" x1=".35" y1="0" x2=".55" y2="1" objectBoundingBox="true">
      <stop stop-color="#f5ecdb"/>
      <stop offset=".45" stop-color="#ecd5b8"/>
      <stop offset="1" stop-color="#d69c89"/>
    </linearGradient>
    <linearGradient id="ink" x1="0" y1="1" x2="1" y2=".1" objectBoundingBox="true">
      <stop stop-color="#121926"/>
      <stop offset=".55" stop-color="#302a43"/>
      <stop offset="1" stop-color="#79638f"/>
    </linearGradient>
    <linearGradient id="purple" x1="0" y1=".55" x2="1" y2=".3" objectBoundingBox="true">
      <stop stop-color="#161b2b"/>
      <stop offset=".45" stop-color="#302a43"/>
      <stop offset=".78" stop-color="#67547f"/>
      <stop offset="1" stop-color="#a28db6"/>
    </linearGradient>
    <linearGradient id="ground" x1=".18" y1=".45" x2=".89" y2=".25" objectBoundingBox="true">
      <stop stop-color="#111a2b"/>
      <stop offset=".43" stop-color="#2a2b42"/>
      <stop offset=".72" stop-color="#70688b"/>
      <stop offset="1" stop-color="#d2cbd6"/>
    </linearGradient>
    <linearGradient id="headphone" x1=".1" y1=".2" x2=".9" y2=".8" objectBoundingBox="true">
      <stop stop-color="#dfcbd0"/>
      <stop offset=".55" stop-color="#a089b0"/>
      <stop offset="1" stop-color="#5e526f"/>
    </linearGradient>
    <pattern id="dots" width="29" height="28" patternUnits="userSpaceOnUse">
      <circle cx="8" cy="9" r="4" fill="#705d8b"/>
    </pattern>
    <filter id="grain" x="0" y="0" width="100%" height="100%">
      <feTurbulence type="fractalNoise" baseFrequency=".53" numOctaves="3" seed="8" stitchTiles="stitch"/>
      <feColorMatrix type="saturate" values="0"/>
      <feComponentTransfer>
        <feFuncR type="linear" slope="3" intercept="-1"/>
        <feFuncG type="linear" slope="3" intercept="-1"/>
        <feFuncB type="linear" slope="3" intercept="-1"/>
        <feFuncA type="linear" slope=".35"/>
      </feComponentTransfer>
    </filter>
    <clipPath id="art-clip"><rect width="1536" height="1024"/></clipPath>
  </defs>

  <g clip-path="url(#art-clip)">
    <rect width="1536" height="1024" fill="#f7f5ee"/>
    <path d="M572 15 1363 297 1092 845 140 875Z" fill="url(#hot)"/>
    <circle cx="1025" cy="266" r="183" fill="url(#sun)"/>
    <circle cx="433" cy="471" r="227" fill="url(#orb)"/>
    <path d="M1320 420h147v190h-147z" fill="url(#dots)"/>

    <!-- The waveform and the guitar echo the reference's two central silhouettes. -->
    <g fill="none" stroke="url(#purple)" stroke-width="17" stroke-linecap="round">
      <path d="M118 470v0 M145 469v0 M172 463v16 M200 455v33 M227 436v67 M257 416v108 M283 441v57 M309 443v54 M337 393v153 M367 365v208 M396 411v115 M426 436v64 M459 459v23 M493 440v61 M526 461v19"/>
    </g>

    <path d="M334 609 382 591 643 622 636 842 314 847Z" fill="#080e1b"/>
    <path d="M382 591 645 622 636 822 382 798Z" fill="url(#purple)"/>
    <g fill="#ffefdf"><circle cx="410" cy="624" r="8"/><circle cx="445" cy="626" r="7"/><circle cx="478" cy="627" r="7"/><circle cx="509" cy="630" r="6"/></g>

    <circle cx="1225" cy="616" r="172" fill="#19202d"/>

    <path d="M777 374h296c15 0 26 11 26 26v203H749V403c0-16 12-29 28-29Z" fill="url(#ink)"/>
    <path d="M750 609h368v23H750z" fill="#0b1020"/>

    <path d="M757 131c23 0 43 19 43 42 0 24-19 43-42 43h-2L676 501c-7 26-5 42 10 46 13 3 26-9 43-17 22-10 37 6 32 27-5 23-27 39-39 62-11 21-9 39 4 65 22 47 16 91-17 120-34 31-88 29-143 13-71-20-103-47-100-99 2-43 24-70 56-109 30-36 44-62 36-89-7-27-10-45 6-59 16-14 36-13 54-3l104-265a44 44 0 0 1-7-22c0-24 19-43 42-43Z" fill="url(#purple)"/>
    <path d="M758 132c23 0 41 19 41 42 0 23-18 42-41 42-15 0-26-8-34-18l-101 265-13-5 107-270a43 43 0 0 1-2-14c0-23 19-42 43-42Z" fill="#0b1125" opacity=".48"/>

    <path d="M0 926c221-85 356-144 531-147 140-3 270 7 413 45 230 61 359 64 592 112v88H0Z" fill="url(#ground)"/>
    <path d="M772 929c119 17 193 52 266 95H623Z" fill="#9080a5" opacity=".35"/>

    <path d="M816 632 1039 649 1075 809 838 800Z" fill="#151c2b" stroke="#141826" stroke-width="9" stroke-linejoin="round"/>
    <path d="M830 645 1027 663 1056 789 850 783Z" fill="url(#purple)"/>
    <path d="M838 797 1073 808 1117 845 798 832Z" fill="#333047"/>
    <path d="M798 832 1117 845 1104 859 807 846Z" fill="#161c2b"/>
    <path d="M894 815 1023 821 1038 832 879 825Z" fill="#9a89a8" opacity=".55"/>

    <path d="M1155 746c-14-111 34-190 129-193 93-3 145 75 135 193" fill="none" stroke="#171d2b" stroke-width="57" stroke-linecap="round"/>
    <path d="M1155 746c-14-111 34-190 129-193 93-3 145 75 135 193" fill="none" stroke="url(#headphone)" stroke-width="28" stroke-linecap="round"/>
    <g transform="rotate(-13 1168 801)">
      <rect x="1117" y="726" width="102" height="157" rx="47" fill="#171d2b"/>
      <rect x="1129" y="738" width="78" height="134" rx="37" fill="url(#headphone)"/>
      <rect x="1146" y="755" width="44" height="100" rx="22" fill="#2a2b3d"/>
    </g>
    <g transform="rotate(13 1413 805)">
      <rect x="1360" y="725" width="106" height="164" rx="49" fill="#171d2b"/>
      <rect x="1372" y="737" width="82" height="140" rx="39" fill="url(#headphone)"/>
      <rect x="1390" y="755" width="46" height="103" rx="23" fill="#2a2b3d"/>
    </g>
    <rect width="1536" height="1024" filter="url(#grain)" style="mix-blend-mode:multiply"/>
  </g>
</svg>
